<mxfile host="app.diagrams.net" modified="2024-06-14T11:18:03.063Z" agent="Mozilla/5.0 (Windows NT 10.0; Win64; x64) AppleWebKit/537.36 (KHTML, like Gecko) Chrome/121.0.0.0 Safari/537.36" etag="_2tF9zkPksuxw1zKAvYx" version="24.5.4" type="device">
  <diagram name="Página-1" id="eIcwM6y3nVCfFhU9Hw5B">
    <mxGraphModel dx="2765" dy="1045" grid="1" gridSize="10" guides="1" tooltips="1" connect="1" arrows="1" fold="1" page="1" pageScale="1" pageWidth="827" pageHeight="1169" math="0" shadow="0">
      <root>
        <mxCell id="0" />
        <mxCell id="1" parent="0" />
        <mxCell id="oIk4ae65bNm2ih2-KjFR-77" style="edgeStyle=orthogonalEdgeStyle;rounded=0;orthogonalLoop=1;jettySize=auto;html=1;exitX=0.5;exitY=1;exitDx=0;exitDy=0;entryX=0.5;entryY=0;entryDx=0;entryDy=0;" parent="1" edge="1">
          <mxGeometry relative="1" as="geometry">
            <mxPoint x="1306" y="234.9999999999999" as="sourcePoint" />
          </mxGeometry>
        </mxCell>
        <mxCell id="oIk4ae65bNm2ih2-KjFR-83" style="edgeStyle=orthogonalEdgeStyle;rounded=0;orthogonalLoop=1;jettySize=auto;html=1;exitX=0.5;exitY=1;exitDx=0;exitDy=0;entryX=0.5;entryY=0;entryDx=0;entryDy=0;" parent="1" edge="1">
          <mxGeometry relative="1" as="geometry">
            <mxPoint x="1306" y="365.0000000000001" as="sourcePoint" />
          </mxGeometry>
        </mxCell>
        <mxCell id="oIk4ae65bNm2ih2-KjFR-100" style="edgeStyle=orthogonalEdgeStyle;rounded=0;orthogonalLoop=1;jettySize=auto;html=1;entryX=0;entryY=0.5;entryDx=0;entryDy=0;" parent="1" edge="1">
          <mxGeometry relative="1" as="geometry">
            <mxPoint x="1490" y="105" as="targetPoint" />
          </mxGeometry>
        </mxCell>
        <mxCell id="Pf3eqKkCY4JL1nLimP5q-1" style="edgeStyle=orthogonalEdgeStyle;rounded=0;orthogonalLoop=1;jettySize=auto;html=1;entryX=0;entryY=0.5;entryDx=0;entryDy=0;" parent="1" source="flSQA8rRtIVv5wNm7FFq-1" target="flSQA8rRtIVv5wNm7FFq-55" edge="1">
          <mxGeometry relative="1" as="geometry" />
        </mxCell>
        <mxCell id="flSQA8rRtIVv5wNm7FFq-1" value="&lt;p style=&quot;line-height: 120%;&quot;&gt;&lt;font style=&quot;font-size: 24px;&quot;&gt;Inicio&lt;/font&gt;&lt;/p&gt;" style="ellipse;whiteSpace=wrap;html=1;" parent="1" vertex="1">
          <mxGeometry x="-230" y="1460" width="80" height="50" as="geometry" />
        </mxCell>
        <mxCell id="flSQA8rRtIVv5wNm7FFq-5" style="edgeStyle=orthogonalEdgeStyle;rounded=0;orthogonalLoop=1;jettySize=auto;html=1;entryX=0;entryY=0.5;entryDx=0;entryDy=0;" parent="1" edge="1">
          <mxGeometry relative="1" as="geometry">
            <mxPoint x="2045" y="625" as="sourcePoint" />
          </mxGeometry>
        </mxCell>
        <mxCell id="flSQA8rRtIVv5wNm7FFq-6" value="Sim" style="edgeLabel;html=1;align=center;verticalAlign=middle;resizable=0;points=[];" parent="flSQA8rRtIVv5wNm7FFq-5" vertex="1" connectable="0">
          <mxGeometry x="-0.2" y="-2" relative="1" as="geometry">
            <mxPoint as="offset" />
          </mxGeometry>
        </mxCell>
        <mxCell id="flSQA8rRtIVv5wNm7FFq-7" style="edgeStyle=orthogonalEdgeStyle;rounded=0;orthogonalLoop=1;jettySize=auto;html=1;exitX=0.5;exitY=1;exitDx=0;exitDy=0;" parent="1" edge="1">
          <mxGeometry relative="1" as="geometry">
            <mxPoint x="2000" y="670" as="sourcePoint" />
          </mxGeometry>
        </mxCell>
        <mxCell id="flSQA8rRtIVv5wNm7FFq-8" value="Não" style="edgeLabel;html=1;align=center;verticalAlign=middle;resizable=0;points=[];" parent="flSQA8rRtIVv5wNm7FFq-7" vertex="1" connectable="0">
          <mxGeometry x="-0.4793" y="-1" relative="1" as="geometry">
            <mxPoint as="offset" />
          </mxGeometry>
        </mxCell>
        <mxCell id="flSQA8rRtIVv5wNm7FFq-10" style="edgeStyle=orthogonalEdgeStyle;rounded=0;orthogonalLoop=1;jettySize=auto;html=1;exitX=1;exitY=0.5;exitDx=0;exitDy=0;entryX=0;entryY=0.5;entryDx=0;entryDy=0;" parent="1" edge="1">
          <mxGeometry relative="1" as="geometry">
            <mxPoint x="2200" y="625" as="sourcePoint" />
          </mxGeometry>
        </mxCell>
        <mxCell id="flSQA8rRtIVv5wNm7FFq-12" style="edgeStyle=orthogonalEdgeStyle;rounded=0;orthogonalLoop=1;jettySize=auto;html=1;exitX=0.5;exitY=1;exitDx=0;exitDy=0;entryX=0.5;entryY=1;entryDx=0;entryDy=0;" parent="1" edge="1">
          <mxGeometry relative="1" as="geometry">
            <mxPoint x="2150" y="645" as="targetPoint" />
          </mxGeometry>
        </mxCell>
        <mxCell id="flSQA8rRtIVv5wNm7FFq-13" value="Não" style="edgeLabel;html=1;align=center;verticalAlign=middle;resizable=0;points=[];" parent="flSQA8rRtIVv5wNm7FFq-12" vertex="1" connectable="0">
          <mxGeometry x="-0.1822" y="-3" relative="1" as="geometry">
            <mxPoint as="offset" />
          </mxGeometry>
        </mxCell>
        <mxCell id="flSQA8rRtIVv5wNm7FFq-40" style="edgeStyle=orthogonalEdgeStyle;rounded=0;orthogonalLoop=1;jettySize=auto;html=1;entryX=0.5;entryY=0;entryDx=0;entryDy=0;" parent="1" edge="1">
          <mxGeometry relative="1" as="geometry">
            <mxPoint x="2000" y="775" as="targetPoint" />
          </mxGeometry>
        </mxCell>
        <mxCell id="flSQA8rRtIVv5wNm7FFq-43" style="edgeStyle=orthogonalEdgeStyle;rounded=0;orthogonalLoop=1;jettySize=auto;html=1;entryX=0;entryY=0.5;entryDx=0;entryDy=0;" parent="1" edge="1">
          <mxGeometry relative="1" as="geometry">
            <mxPoint x="2080" y="762.5" as="targetPoint" />
          </mxGeometry>
        </mxCell>
        <mxCell id="flSQA8rRtIVv5wNm7FFq-44" value="Não" style="edgeLabel;html=1;align=center;verticalAlign=middle;resizable=0;points=[];" parent="flSQA8rRtIVv5wNm7FFq-43" vertex="1" connectable="0">
          <mxGeometry x="0.0038" relative="1" as="geometry">
            <mxPoint as="offset" />
          </mxGeometry>
        </mxCell>
        <mxCell id="flSQA8rRtIVv5wNm7FFq-45" style="edgeStyle=orthogonalEdgeStyle;rounded=0;orthogonalLoop=1;jettySize=auto;html=1;exitX=1;exitY=1;exitDx=0;exitDy=0;entryX=0;entryY=0.5;entryDx=0;entryDy=0;" parent="1" edge="1">
          <mxGeometry relative="1" as="geometry">
            <mxPoint x="2100" y="826.25" as="targetPoint" />
          </mxGeometry>
        </mxCell>
        <mxCell id="flSQA8rRtIVv5wNm7FFq-46" value="Sim" style="edgeLabel;html=1;align=center;verticalAlign=middle;resizable=0;points=[];" parent="flSQA8rRtIVv5wNm7FFq-45" vertex="1" connectable="0">
          <mxGeometry x="-0.0777" relative="1" as="geometry">
            <mxPoint as="offset" />
          </mxGeometry>
        </mxCell>
        <mxCell id="flSQA8rRtIVv5wNm7FFq-48" style="edgeStyle=orthogonalEdgeStyle;rounded=0;orthogonalLoop=1;jettySize=auto;html=1;entryX=1;entryY=0.5;entryDx=0;entryDy=0;" parent="1" edge="1">
          <mxGeometry relative="1" as="geometry">
            <Array as="points">
              <mxPoint x="2122" y="733" />
            </Array>
            <mxPoint x="2121.5" y="747.5" as="sourcePoint" />
          </mxGeometry>
        </mxCell>
        <mxCell id="flSQA8rRtIVv5wNm7FFq-50" style="edgeStyle=orthogonalEdgeStyle;rounded=0;orthogonalLoop=1;jettySize=auto;html=1;exitX=1;exitY=0.5;exitDx=0;exitDy=0;entryX=1;entryY=1;entryDx=0;entryDy=0;" parent="1" edge="1">
          <mxGeometry relative="1" as="geometry">
            <Array as="points">
              <mxPoint x="2230" y="826" />
              <mxPoint x="2230" y="710" />
              <mxPoint x="2023" y="710" />
            </Array>
            <mxPoint x="2022.5" y="647.5" as="targetPoint" />
          </mxGeometry>
        </mxCell>
        <mxCell id="flSQA8rRtIVv5wNm7FFq-54" style="edgeStyle=orthogonalEdgeStyle;rounded=0;orthogonalLoop=1;jettySize=auto;html=1;exitX=0.5;exitY=1;exitDx=0;exitDy=0;entryX=0.5;entryY=0;entryDx=0;entryDy=0;" parent="1" edge="1">
          <mxGeometry relative="1" as="geometry">
            <mxPoint x="2000" y="530" as="sourcePoint" />
          </mxGeometry>
        </mxCell>
        <mxCell id="flSQA8rRtIVv5wNm7FFq-57" style="edgeStyle=orthogonalEdgeStyle;rounded=0;orthogonalLoop=1;jettySize=auto;html=1;exitX=1;exitY=0;exitDx=0;exitDy=0;entryX=0;entryY=0.5;entryDx=0;entryDy=0;" parent="1" source="flSQA8rRtIVv5wNm7FFq-55" target="flSQA8rRtIVv5wNm7FFq-56" edge="1">
          <mxGeometry relative="1" as="geometry" />
        </mxCell>
        <mxCell id="flSQA8rRtIVv5wNm7FFq-61" style="edgeStyle=orthogonalEdgeStyle;rounded=0;orthogonalLoop=1;jettySize=auto;html=1;exitX=1;exitY=1;exitDx=0;exitDy=0;entryX=0;entryY=0.5;entryDx=0;entryDy=0;" parent="1" source="flSQA8rRtIVv5wNm7FFq-55" target="flSQA8rRtIVv5wNm7FFq-60" edge="1">
          <mxGeometry relative="1" as="geometry" />
        </mxCell>
        <mxCell id="flSQA8rRtIVv5wNm7FFq-55" value="Tela de Inicio" style="rounded=0;whiteSpace=wrap;html=1;" parent="1" vertex="1">
          <mxGeometry x="-160" y="1517.5" width="120" height="35" as="geometry" />
        </mxCell>
        <mxCell id="flSQA8rRtIVv5wNm7FFq-58" style="edgeStyle=orthogonalEdgeStyle;rounded=0;orthogonalLoop=1;jettySize=auto;html=1;exitX=0;exitY=0;exitDx=0;exitDy=0;entryX=0.5;entryY=0;entryDx=0;entryDy=0;" parent="1" source="flSQA8rRtIVv5wNm7FFq-56" target="flSQA8rRtIVv5wNm7FFq-55" edge="1">
          <mxGeometry relative="1" as="geometry">
            <Array as="points">
              <mxPoint x="70" y="1460" />
              <mxPoint x="-100" y="1459" />
            </Array>
          </mxGeometry>
        </mxCell>
        <mxCell id="flSQA8rRtIVv5wNm7FFq-59" value="Não" style="edgeLabel;html=1;align=center;verticalAlign=middle;resizable=0;points=[];" parent="flSQA8rRtIVv5wNm7FFq-58" vertex="1" connectable="0">
          <mxGeometry x="-0.2765" y="-1" relative="1" as="geometry">
            <mxPoint y="-9" as="offset" />
          </mxGeometry>
        </mxCell>
        <mxCell id="flSQA8rRtIVv5wNm7FFq-175" value="" style="edgeStyle=orthogonalEdgeStyle;rounded=0;orthogonalLoop=1;jettySize=auto;html=1;" parent="1" source="flSQA8rRtIVv5wNm7FFq-56" target="flSQA8rRtIVv5wNm7FFq-174" edge="1">
          <mxGeometry relative="1" as="geometry" />
        </mxCell>
        <mxCell id="flSQA8rRtIVv5wNm7FFq-176" value="Sim" style="edgeLabel;html=1;align=center;verticalAlign=middle;resizable=0;points=[];" parent="flSQA8rRtIVv5wNm7FFq-175" vertex="1" connectable="0">
          <mxGeometry x="-0.24" y="-2" relative="1" as="geometry">
            <mxPoint y="-17" as="offset" />
          </mxGeometry>
        </mxCell>
        <mxCell id="flSQA8rRtIVv5wNm7FFq-56" value="&lt;font style=&quot;font-size: 9px;&quot;&gt;devedores&lt;/font&gt;" style="rhombus;whiteSpace=wrap;html=1;" parent="1" vertex="1">
          <mxGeometry x="30" y="1440" width="80" height="80" as="geometry" />
        </mxCell>
        <mxCell id="flSQA8rRtIVv5wNm7FFq-62" style="edgeStyle=orthogonalEdgeStyle;rounded=0;orthogonalLoop=1;jettySize=auto;html=1;exitX=0.5;exitY=1;exitDx=0;exitDy=0;entryX=0.5;entryY=1;entryDx=0;entryDy=0;" parent="1" source="flSQA8rRtIVv5wNm7FFq-60" target="flSQA8rRtIVv5wNm7FFq-55" edge="1">
          <mxGeometry relative="1" as="geometry">
            <Array as="points">
              <mxPoint x="-100" y="1650" />
            </Array>
          </mxGeometry>
        </mxCell>
        <mxCell id="flSQA8rRtIVv5wNm7FFq-63" value="Não" style="edgeLabel;html=1;align=center;verticalAlign=middle;resizable=0;points=[];" parent="flSQA8rRtIVv5wNm7FFq-62" vertex="1" connectable="0">
          <mxGeometry x="-0.5419" y="1" relative="1" as="geometry">
            <mxPoint x="-39" y="9" as="offset" />
          </mxGeometry>
        </mxCell>
        <mxCell id="flSQA8rRtIVv5wNm7FFq-106" style="edgeStyle=orthogonalEdgeStyle;rounded=0;orthogonalLoop=1;jettySize=auto;html=1;entryX=0;entryY=0.5;entryDx=0;entryDy=0;" parent="1" source="flSQA8rRtIVv5wNm7FFq-60" target="flSQA8rRtIVv5wNm7FFq-105" edge="1">
          <mxGeometry relative="1" as="geometry" />
        </mxCell>
        <mxCell id="flSQA8rRtIVv5wNm7FFq-107" value="Sim" style="edgeLabel;html=1;align=center;verticalAlign=middle;resizable=0;points=[];" parent="flSQA8rRtIVv5wNm7FFq-106" vertex="1" connectable="0">
          <mxGeometry x="-0.1688" relative="1" as="geometry">
            <mxPoint y="-15" as="offset" />
          </mxGeometry>
        </mxCell>
        <mxCell id="flSQA8rRtIVv5wNm7FFq-60" value="&lt;font style=&quot;font-size: 9px;&quot;&gt;contas a pagar&lt;/font&gt;" style="rhombus;whiteSpace=wrap;html=1;" parent="1" vertex="1">
          <mxGeometry x="25" y="1560" width="90" height="90" as="geometry" />
        </mxCell>
        <mxCell id="flSQA8rRtIVv5wNm7FFq-124" style="edgeStyle=orthogonalEdgeStyle;rounded=0;orthogonalLoop=1;jettySize=auto;html=1;exitX=0.5;exitY=1;exitDx=0;exitDy=0;entryX=0.5;entryY=0;entryDx=0;entryDy=0;" parent="1" source="flSQA8rRtIVv5wNm7FFq-105" target="flSQA8rRtIVv5wNm7FFq-123" edge="1">
          <mxGeometry relative="1" as="geometry" />
        </mxCell>
        <mxCell id="flSQA8rRtIVv5wNm7FFq-125" value="Sim" style="edgeLabel;html=1;align=center;verticalAlign=middle;resizable=0;points=[];" parent="flSQA8rRtIVv5wNm7FFq-124" vertex="1" connectable="0">
          <mxGeometry x="-0.3714" y="1" relative="1" as="geometry">
            <mxPoint x="24" as="offset" />
          </mxGeometry>
        </mxCell>
        <mxCell id="v3KTgPduU6Q00sp0H0nY-15" style="edgeStyle=orthogonalEdgeStyle;rounded=0;orthogonalLoop=1;jettySize=auto;html=1;entryX=0;entryY=0.5;entryDx=0;entryDy=0;" parent="1" source="flSQA8rRtIVv5wNm7FFq-105" target="v3KTgPduU6Q00sp0H0nY-14" edge="1">
          <mxGeometry relative="1" as="geometry" />
        </mxCell>
        <mxCell id="v3KTgPduU6Q00sp0H0nY-16" value="Não" style="edgeLabel;html=1;align=center;verticalAlign=middle;resizable=0;points=[];" parent="v3KTgPduU6Q00sp0H0nY-15" vertex="1" connectable="0">
          <mxGeometry x="-0.1" y="-1" relative="1" as="geometry">
            <mxPoint y="-16" as="offset" />
          </mxGeometry>
        </mxCell>
        <mxCell id="flSQA8rRtIVv5wNm7FFq-105" value="&lt;font style=&quot;font-size: 8px;&quot;&gt;tem conta pra pagar?&lt;/font&gt;" style="rhombus;whiteSpace=wrap;html=1;" parent="1" vertex="1">
          <mxGeometry x="155" y="1562.5" width="90" height="85" as="geometry" />
        </mxCell>
        <mxCell id="flSQA8rRtIVv5wNm7FFq-128" value="" style="edgeStyle=orthogonalEdgeStyle;rounded=0;orthogonalLoop=1;jettySize=auto;html=1;" parent="1" source="flSQA8rRtIVv5wNm7FFq-123" target="flSQA8rRtIVv5wNm7FFq-126" edge="1">
          <mxGeometry relative="1" as="geometry" />
        </mxCell>
        <mxCell id="flSQA8rRtIVv5wNm7FFq-129" value="Sim" style="edgeLabel;html=1;align=center;verticalAlign=middle;resizable=0;points=[];" parent="flSQA8rRtIVv5wNm7FFq-128" vertex="1" connectable="0">
          <mxGeometry x="-0.45" y="-4" relative="1" as="geometry">
            <mxPoint x="-21" y="-8" as="offset" />
          </mxGeometry>
        </mxCell>
        <mxCell id="flSQA8rRtIVv5wNm7FFq-136" value="" style="edgeStyle=orthogonalEdgeStyle;rounded=0;orthogonalLoop=1;jettySize=auto;html=1;" parent="1" source="flSQA8rRtIVv5wNm7FFq-123" target="flSQA8rRtIVv5wNm7FFq-135" edge="1">
          <mxGeometry relative="1" as="geometry" />
        </mxCell>
        <mxCell id="flSQA8rRtIVv5wNm7FFq-137" value="Não" style="edgeLabel;html=1;align=center;verticalAlign=middle;resizable=0;points=[];" parent="flSQA8rRtIVv5wNm7FFq-136" vertex="1" connectable="0">
          <mxGeometry x="-0.201" y="-1" relative="1" as="geometry">
            <mxPoint x="3" y="-16" as="offset" />
          </mxGeometry>
        </mxCell>
        <mxCell id="flSQA8rRtIVv5wNm7FFq-123" value="deletar" style="rhombus;whiteSpace=wrap;html=1;" parent="1" vertex="1">
          <mxGeometry x="175" y="1700" width="80" height="80" as="geometry" />
        </mxCell>
        <mxCell id="flSQA8rRtIVv5wNm7FFq-130" style="edgeStyle=orthogonalEdgeStyle;rounded=0;orthogonalLoop=1;jettySize=auto;html=1;exitX=1;exitY=0.5;exitDx=0;exitDy=0;entryX=1;entryY=0.5;entryDx=0;entryDy=0;" parent="1" source="flSQA8rRtIVv5wNm7FFq-126" target="flSQA8rRtIVv5wNm7FFq-123" edge="1">
          <mxGeometry relative="1" as="geometry" />
        </mxCell>
        <mxCell id="flSQA8rRtIVv5wNm7FFq-131" value="Não" style="edgeLabel;html=1;align=center;verticalAlign=middle;resizable=0;points=[];" parent="flSQA8rRtIVv5wNm7FFq-130" vertex="1" connectable="0">
          <mxGeometry x="-0.1" relative="1" as="geometry">
            <mxPoint x="-20" y="-8" as="offset" />
          </mxGeometry>
        </mxCell>
        <mxCell id="flSQA8rRtIVv5wNm7FFq-133" style="edgeStyle=orthogonalEdgeStyle;rounded=0;orthogonalLoop=1;jettySize=auto;html=1;exitX=0.5;exitY=1;exitDx=0;exitDy=0;entryX=0.5;entryY=0;entryDx=0;entryDy=0;" parent="1" source="flSQA8rRtIVv5wNm7FFq-126" target="flSQA8rRtIVv5wNm7FFq-132" edge="1">
          <mxGeometry relative="1" as="geometry" />
        </mxCell>
        <mxCell id="flSQA8rRtIVv5wNm7FFq-134" value="Sim" style="edgeLabel;html=1;align=center;verticalAlign=middle;resizable=0;points=[];" parent="flSQA8rRtIVv5wNm7FFq-133" vertex="1" connectable="0">
          <mxGeometry x="-0.6" y="1" relative="1" as="geometry">
            <mxPoint x="24" as="offset" />
          </mxGeometry>
        </mxCell>
        <mxCell id="flSQA8rRtIVv5wNm7FFq-126" value="&lt;font style=&quot;font-size: 9px;&quot;&gt;c onfirmar?&lt;/font&gt;" style="rhombus;whiteSpace=wrap;html=1;" parent="1" vertex="1">
          <mxGeometry x="175" y="1794" width="80" height="80" as="geometry" />
        </mxCell>
        <mxCell id="flSQA8rRtIVv5wNm7FFq-146" style="edgeStyle=orthogonalEdgeStyle;rounded=0;orthogonalLoop=1;jettySize=auto;html=1;exitX=1;exitY=0.5;exitDx=0;exitDy=0;entryX=1;entryY=1;entryDx=0;entryDy=0;" parent="1" source="flSQA8rRtIVv5wNm7FFq-132" target="flSQA8rRtIVv5wNm7FFq-105" edge="1">
          <mxGeometry relative="1" as="geometry">
            <Array as="points">
              <mxPoint x="290" y="1920" />
              <mxPoint x="290" y="1626" />
            </Array>
          </mxGeometry>
        </mxCell>
        <mxCell id="flSQA8rRtIVv5wNm7FFq-132" value="&lt;font style=&quot;font-size: 9px;&quot;&gt;Conta apagada&lt;/font&gt;" style="rounded=0;whiteSpace=wrap;html=1;" parent="1" vertex="1">
          <mxGeometry x="160" y="1900" width="110" height="40" as="geometry" />
        </mxCell>
        <mxCell id="flSQA8rRtIVv5wNm7FFq-139" value="" style="edgeStyle=orthogonalEdgeStyle;rounded=0;orthogonalLoop=1;jettySize=auto;html=1;" parent="1" source="flSQA8rRtIVv5wNm7FFq-135" target="flSQA8rRtIVv5wNm7FFq-138" edge="1">
          <mxGeometry relative="1" as="geometry" />
        </mxCell>
        <mxCell id="flSQA8rRtIVv5wNm7FFq-140" value="Sim" style="edgeLabel;html=1;align=center;verticalAlign=middle;resizable=0;points=[];" parent="flSQA8rRtIVv5wNm7FFq-139" vertex="1" connectable="0">
          <mxGeometry x="-0.6" y="-1" relative="1" as="geometry">
            <mxPoint x="21" y="2" as="offset" />
          </mxGeometry>
        </mxCell>
        <mxCell id="flSQA8rRtIVv5wNm7FFq-135" value="atualizar" style="rhombus;whiteSpace=wrap;html=1;" parent="1" vertex="1">
          <mxGeometry x="70.00000000000006" y="1700" width="80" height="80" as="geometry" />
        </mxCell>
        <mxCell id="flSQA8rRtIVv5wNm7FFq-141" style="edgeStyle=orthogonalEdgeStyle;rounded=0;orthogonalLoop=1;jettySize=auto;html=1;exitX=0;exitY=0.5;exitDx=0;exitDy=0;entryX=0;entryY=0.5;entryDx=0;entryDy=0;" parent="1" source="flSQA8rRtIVv5wNm7FFq-138" target="flSQA8rRtIVv5wNm7FFq-135" edge="1">
          <mxGeometry relative="1" as="geometry" />
        </mxCell>
        <mxCell id="flSQA8rRtIVv5wNm7FFq-142" value="Não" style="edgeLabel;html=1;align=center;verticalAlign=middle;resizable=0;points=[];" parent="flSQA8rRtIVv5wNm7FFq-141" vertex="1" connectable="0">
          <mxGeometry x="0.025" y="-1" relative="1" as="geometry">
            <mxPoint x="19" as="offset" />
          </mxGeometry>
        </mxCell>
        <mxCell id="flSQA8rRtIVv5wNm7FFq-144" style="edgeStyle=orthogonalEdgeStyle;rounded=0;orthogonalLoop=1;jettySize=auto;html=1;exitX=0.5;exitY=1;exitDx=0;exitDy=0;entryX=0.5;entryY=0;entryDx=0;entryDy=0;" parent="1" source="flSQA8rRtIVv5wNm7FFq-138" target="flSQA8rRtIVv5wNm7FFq-143" edge="1">
          <mxGeometry relative="1" as="geometry">
            <Array as="points">
              <mxPoint x="90" y="1880" />
              <mxPoint x="90" y="1900" />
            </Array>
          </mxGeometry>
        </mxCell>
        <mxCell id="flSQA8rRtIVv5wNm7FFq-138" value="&lt;font style=&quot;font-size: 8px;&quot;&gt;alteração feita&lt;/font&gt;" style="rhombus;whiteSpace=wrap;html=1;" parent="1" vertex="1">
          <mxGeometry x="90.00000000000006" y="1800" width="80" height="80" as="geometry" />
        </mxCell>
        <mxCell id="flSQA8rRtIVv5wNm7FFq-145" style="edgeStyle=orthogonalEdgeStyle;rounded=0;orthogonalLoop=1;jettySize=auto;html=1;exitX=0;exitY=0.5;exitDx=0;exitDy=0;entryX=0;entryY=1;entryDx=0;entryDy=0;" parent="1" source="flSQA8rRtIVv5wNm7FFq-143" target="flSQA8rRtIVv5wNm7FFq-105" edge="1">
          <mxGeometry relative="1" as="geometry">
            <Array as="points">
              <mxPoint x="30" y="1910" />
              <mxPoint x="40" y="1910" />
              <mxPoint x="40" y="1690" />
              <mxPoint x="193" y="1690" />
            </Array>
          </mxGeometry>
        </mxCell>
        <mxCell id="flSQA8rRtIVv5wNm7FFq-143" value="&lt;font style=&quot;font-size: 9px;&quot;&gt;Dados Atualizados&lt;/font&gt;" style="rounded=0;whiteSpace=wrap;html=1;" parent="1" vertex="1">
          <mxGeometry x="30" y="1900" width="110" height="40" as="geometry" />
        </mxCell>
        <mxCell id="flSQA8rRtIVv5wNm7FFq-181" value="" style="edgeStyle=orthogonalEdgeStyle;rounded=0;orthogonalLoop=1;jettySize=auto;html=1;" parent="1" source="flSQA8rRtIVv5wNm7FFq-174" target="flSQA8rRtIVv5wNm7FFq-179" edge="1">
          <mxGeometry relative="1" as="geometry" />
        </mxCell>
        <mxCell id="flSQA8rRtIVv5wNm7FFq-196" value="Não" style="edgeLabel;html=1;align=center;verticalAlign=middle;resizable=0;points=[];" parent="flSQA8rRtIVv5wNm7FFq-181" vertex="1" connectable="0">
          <mxGeometry x="-0.28" y="3" relative="1" as="geometry">
            <mxPoint x="2" y="18" as="offset" />
          </mxGeometry>
        </mxCell>
        <mxCell id="flSQA8rRtIVv5wNm7FFq-183" style="edgeStyle=orthogonalEdgeStyle;rounded=0;orthogonalLoop=1;jettySize=auto;html=1;exitX=0;exitY=1;exitDx=0;exitDy=0;entryX=1;entryY=1;entryDx=0;entryDy=0;" parent="1" source="flSQA8rRtIVv5wNm7FFq-174" target="flSQA8rRtIVv5wNm7FFq-56" edge="1">
          <mxGeometry relative="1" as="geometry">
            <Array as="points">
              <mxPoint x="183" y="1530" />
              <mxPoint x="90" y="1530" />
            </Array>
          </mxGeometry>
        </mxCell>
        <mxCell id="flSQA8rRtIVv5wNm7FFq-184" value="Não" style="edgeLabel;html=1;align=center;verticalAlign=middle;resizable=0;points=[];" parent="flSQA8rRtIVv5wNm7FFq-183" vertex="1" connectable="0">
          <mxGeometry x="-0.1119" relative="1" as="geometry">
            <mxPoint y="20" as="offset" />
          </mxGeometry>
        </mxCell>
        <mxCell id="flSQA8rRtIVv5wNm7FFq-198" value="" style="edgeStyle=orthogonalEdgeStyle;rounded=0;orthogonalLoop=1;jettySize=auto;html=1;" parent="1" source="flSQA8rRtIVv5wNm7FFq-174" target="flSQA8rRtIVv5wNm7FFq-197" edge="1">
          <mxGeometry relative="1" as="geometry" />
        </mxCell>
        <mxCell id="flSQA8rRtIVv5wNm7FFq-199" value="Sim" style="edgeLabel;html=1;align=center;verticalAlign=middle;resizable=0;points=[];" parent="flSQA8rRtIVv5wNm7FFq-198" vertex="1" connectable="0">
          <mxGeometry x="0.1" y="1" relative="1" as="geometry">
            <mxPoint x="16" as="offset" />
          </mxGeometry>
        </mxCell>
        <mxCell id="flSQA8rRtIVv5wNm7FFq-174" value="A devedores?" style="rhombus;whiteSpace=wrap;html=1;" parent="1" vertex="1">
          <mxGeometry x="160" y="1430" width="90" height="100" as="geometry" />
        </mxCell>
        <mxCell id="flSQA8rRtIVv5wNm7FFq-206" style="edgeStyle=orthogonalEdgeStyle;rounded=0;orthogonalLoop=1;jettySize=auto;html=1;exitX=0;exitY=0;exitDx=0;exitDy=0;entryX=1;entryY=0.5;entryDx=0;entryDy=0;" parent="1" source="flSQA8rRtIVv5wNm7FFq-179" target="flSQA8rRtIVv5wNm7FFq-197" edge="1">
          <mxGeometry relative="1" as="geometry" />
        </mxCell>
        <mxCell id="flSQA8rRtIVv5wNm7FFq-207" value="Não" style="edgeLabel;html=1;align=center;verticalAlign=middle;resizable=0;points=[];" parent="flSQA8rRtIVv5wNm7FFq-206" vertex="1" connectable="0">
          <mxGeometry x="0.1288" y="1" relative="1" as="geometry">
            <mxPoint x="19" as="offset" />
          </mxGeometry>
        </mxCell>
        <mxCell id="v3KTgPduU6Q00sp0H0nY-4" style="edgeStyle=orthogonalEdgeStyle;rounded=0;orthogonalLoop=1;jettySize=auto;html=1;entryX=0;entryY=0.5;entryDx=0;entryDy=0;" parent="1" source="flSQA8rRtIVv5wNm7FFq-179" target="v3KTgPduU6Q00sp0H0nY-3" edge="1">
          <mxGeometry relative="1" as="geometry" />
        </mxCell>
        <mxCell id="v3KTgPduU6Q00sp0H0nY-9" value="Sim" style="edgeLabel;html=1;align=center;verticalAlign=middle;resizable=0;points=[];" parent="v3KTgPduU6Q00sp0H0nY-4" vertex="1" connectable="0">
          <mxGeometry x="0.28" y="3" relative="1" as="geometry">
            <mxPoint y="18" as="offset" />
          </mxGeometry>
        </mxCell>
        <mxCell id="flSQA8rRtIVv5wNm7FFq-179" value="adicionar" style="rhombus;whiteSpace=wrap;html=1;" parent="1" vertex="1">
          <mxGeometry x="300" y="1440" width="70" height="80" as="geometry" />
        </mxCell>
        <mxCell id="v3KTgPduU6Q00sp0H0nY-6" style="edgeStyle=orthogonalEdgeStyle;rounded=0;orthogonalLoop=1;jettySize=auto;html=1;exitX=0.5;exitY=0;exitDx=0;exitDy=0;entryX=0.5;entryY=1;entryDx=0;entryDy=0;" parent="1" source="flSQA8rRtIVv5wNm7FFq-185" target="flSQA8rRtIVv5wNm7FFq-188" edge="1">
          <mxGeometry relative="1" as="geometry" />
        </mxCell>
        <mxCell id="flSQA8rRtIVv5wNm7FFq-185" value="&lt;div&gt;&lt;br&gt;&lt;/div&gt;&lt;div&gt;informções da conta&lt;br&gt;&lt;/div&gt;&lt;div&gt;nome:xxx&lt;/div&gt;&lt;div&gt;valor:xxx&lt;/div&gt;" style="shape=manualInput;whiteSpace=wrap;html=1;" parent="1" vertex="1">
          <mxGeometry x="560" y="1420" width="110" height="100" as="geometry" />
        </mxCell>
        <mxCell id="v3KTgPduU6Q00sp0H0nY-7" style="edgeStyle=orthogonalEdgeStyle;rounded=0;orthogonalLoop=1;jettySize=auto;html=1;entryX=0.5;entryY=1;entryDx=0;entryDy=0;" parent="1" source="flSQA8rRtIVv5wNm7FFq-188" target="flSQA8rRtIVv5wNm7FFq-190" edge="1">
          <mxGeometry relative="1" as="geometry" />
        </mxCell>
        <mxCell id="v3KTgPduU6Q00sp0H0nY-10" value="Sim" style="edgeLabel;html=1;align=center;verticalAlign=middle;resizable=0;points=[];" parent="v3KTgPduU6Q00sp0H0nY-7" vertex="1" connectable="0">
          <mxGeometry x="0.0204" y="2" relative="1" as="geometry">
            <mxPoint x="17" as="offset" />
          </mxGeometry>
        </mxCell>
        <mxCell id="v3KTgPduU6Q00sp0H0nY-12" style="edgeStyle=orthogonalEdgeStyle;rounded=0;orthogonalLoop=1;jettySize=auto;html=1;entryX=0.5;entryY=1;entryDx=0;entryDy=0;" parent="1" edge="1">
          <mxGeometry relative="1" as="geometry">
            <Array as="points">
              <mxPoint x="585" y="1309.97" />
              <mxPoint x="690" y="1309.97" />
              <mxPoint x="690" y="1538.97" />
              <mxPoint x="430" y="1538.97" />
            </Array>
            <mxPoint x="585.030303030303" y="1329.0003030303033" as="sourcePoint" />
            <mxPoint x="430" y="1493.97" as="targetPoint" />
          </mxGeometry>
        </mxCell>
        <mxCell id="v3KTgPduU6Q00sp0H0nY-13" value="Não" style="edgeLabel;html=1;align=center;verticalAlign=middle;resizable=0;points=[];" parent="v3KTgPduU6Q00sp0H0nY-12" vertex="1" connectable="0">
          <mxGeometry x="-0.2444" y="1" relative="1" as="geometry">
            <mxPoint x="19" as="offset" />
          </mxGeometry>
        </mxCell>
        <mxCell id="flSQA8rRtIVv5wNm7FFq-188" value="confirmar?" style="rhombus;whiteSpace=wrap;html=1;" parent="1" vertex="1">
          <mxGeometry x="575" y="1330" width="80" height="80" as="geometry" />
        </mxCell>
        <mxCell id="v3KTgPduU6Q00sp0H0nY-8" style="edgeStyle=orthogonalEdgeStyle;rounded=0;orthogonalLoop=1;jettySize=auto;html=1;entryX=1;entryY=0;entryDx=0;entryDy=0;exitX=0;exitY=0.5;exitDx=0;exitDy=0;" parent="1" source="flSQA8rRtIVv5wNm7FFq-190" edge="1">
          <mxGeometry relative="1" as="geometry">
            <Array as="points">
              <mxPoint x="530" y="1271" />
              <mxPoint x="530" y="1390" />
              <mxPoint x="320" y="1390" />
            </Array>
            <mxPoint x="580" y="1240" as="sourcePoint" />
            <mxPoint x="320" y="1459.99" as="targetPoint" />
          </mxGeometry>
        </mxCell>
        <mxCell id="jsm55oVyJJtcmc3wDpK--12" value="Text" style="edgeLabel;html=1;align=center;verticalAlign=middle;resizable=0;points=[];" parent="v3KTgPduU6Q00sp0H0nY-8" vertex="1" connectable="0">
          <mxGeometry x="0.9845" relative="1" as="geometry">
            <mxPoint as="offset" />
          </mxGeometry>
        </mxCell>
        <mxCell id="flSQA8rRtIVv5wNm7FFq-190" value="devedores adicionados" style="rounded=0;whiteSpace=wrap;html=1;" parent="1" vertex="1">
          <mxGeometry x="540" y="1250" width="95" height="42.5" as="geometry" />
        </mxCell>
        <mxCell id="flSQA8rRtIVv5wNm7FFq-200" style="edgeStyle=orthogonalEdgeStyle;rounded=0;orthogonalLoop=1;jettySize=auto;html=1;exitX=0;exitY=0.5;exitDx=0;exitDy=0;entryX=0.38;entryY=0.1;entryDx=0;entryDy=0;entryPerimeter=0;" parent="1" source="flSQA8rRtIVv5wNm7FFq-197" target="flSQA8rRtIVv5wNm7FFq-174" edge="1">
          <mxGeometry relative="1" as="geometry">
            <Array as="points">
              <mxPoint x="145" y="1350" />
              <mxPoint x="145" y="1410" />
              <mxPoint x="190" y="1410" />
              <mxPoint x="190" y="1440" />
            </Array>
          </mxGeometry>
        </mxCell>
        <mxCell id="flSQA8rRtIVv5wNm7FFq-201" value="Não" style="edgeLabel;html=1;align=center;verticalAlign=middle;resizable=0;points=[];" parent="flSQA8rRtIVv5wNm7FFq-200" vertex="1" connectable="0">
          <mxGeometry x="-0.2985" y="-2" relative="1" as="geometry">
            <mxPoint x="-18" y="4" as="offset" />
          </mxGeometry>
        </mxCell>
        <mxCell id="flSQA8rRtIVv5wNm7FFq-204" value="" style="edgeStyle=orthogonalEdgeStyle;rounded=0;orthogonalLoop=1;jettySize=auto;html=1;" parent="1" source="flSQA8rRtIVv5wNm7FFq-197" target="flSQA8rRtIVv5wNm7FFq-203" edge="1">
          <mxGeometry relative="1" as="geometry" />
        </mxCell>
        <mxCell id="flSQA8rRtIVv5wNm7FFq-210" value="Sim" style="edgeLabel;html=1;align=center;verticalAlign=middle;resizable=0;points=[];" parent="flSQA8rRtIVv5wNm7FFq-204" vertex="1" connectable="0">
          <mxGeometry x="0.05" y="-4" relative="1" as="geometry">
            <mxPoint x="-34" as="offset" />
          </mxGeometry>
        </mxCell>
        <mxCell id="flSQA8rRtIVv5wNm7FFq-197" value="Apagar?" style="rhombus;whiteSpace=wrap;html=1;" parent="1" vertex="1">
          <mxGeometry x="165" y="1310" width="80" height="80" as="geometry" />
        </mxCell>
        <mxCell id="flSQA8rRtIVv5wNm7FFq-208" value="" style="edgeStyle=orthogonalEdgeStyle;rounded=0;orthogonalLoop=1;jettySize=auto;html=1;" parent="1" source="flSQA8rRtIVv5wNm7FFq-203" target="flSQA8rRtIVv5wNm7FFq-205" edge="1">
          <mxGeometry relative="1" as="geometry" />
        </mxCell>
        <mxCell id="flSQA8rRtIVv5wNm7FFq-209" value="Sim" style="edgeLabel;html=1;align=center;verticalAlign=middle;resizable=0;points=[];" parent="flSQA8rRtIVv5wNm7FFq-208" vertex="1" connectable="0">
          <mxGeometry x="-0.15" y="-3" relative="1" as="geometry">
            <mxPoint x="28" y="3" as="offset" />
          </mxGeometry>
        </mxCell>
        <mxCell id="flSQA8rRtIVv5wNm7FFq-211" style="edgeStyle=orthogonalEdgeStyle;rounded=0;orthogonalLoop=1;jettySize=auto;html=1;exitX=1;exitY=0.5;exitDx=0;exitDy=0;entryX=1;entryY=0;entryDx=0;entryDy=0;" parent="1" source="flSQA8rRtIVv5wNm7FFq-203" target="flSQA8rRtIVv5wNm7FFq-197" edge="1">
          <mxGeometry relative="1" as="geometry">
            <Array as="points">
              <mxPoint x="245" y="1250" />
              <mxPoint x="265" y="1250" />
              <mxPoint x="265" y="1330" />
            </Array>
          </mxGeometry>
        </mxCell>
        <mxCell id="flSQA8rRtIVv5wNm7FFq-212" value="Não" style="edgeLabel;html=1;align=center;verticalAlign=middle;resizable=0;points=[];" parent="flSQA8rRtIVv5wNm7FFq-211" vertex="1" connectable="0">
          <mxGeometry x="-0.0375" relative="1" as="geometry">
            <mxPoint x="15" as="offset" />
          </mxGeometry>
        </mxCell>
        <mxCell id="flSQA8rRtIVv5wNm7FFq-203" value="confirmar?" style="rhombus;whiteSpace=wrap;html=1;" parent="1" vertex="1">
          <mxGeometry x="165" y="1212.5" width="80" height="80" as="geometry" />
        </mxCell>
        <mxCell id="b5Pik3bhmSVlTfjHyz-i-4" style="edgeStyle=orthogonalEdgeStyle;rounded=0;orthogonalLoop=1;jettySize=auto;html=1;entryX=1;entryY=0;entryDx=0;entryDy=0;" parent="1" source="flSQA8rRtIVv5wNm7FFq-205" target="flSQA8rRtIVv5wNm7FFq-56" edge="1">
          <mxGeometry relative="1" as="geometry" />
        </mxCell>
        <mxCell id="flSQA8rRtIVv5wNm7FFq-205" value="apagado" style="rounded=0;whiteSpace=wrap;html=1;" parent="1" vertex="1">
          <mxGeometry x="160" y="1140" width="90" height="50" as="geometry" />
        </mxCell>
        <mxCell id="v3KTgPduU6Q00sp0H0nY-3" value="tela de &quot;cadastro&quot;" style="rounded=0;whiteSpace=wrap;html=1;" parent="1" vertex="1">
          <mxGeometry x="400" y="1465" width="120" height="30" as="geometry" />
        </mxCell>
        <mxCell id="v3KTgPduU6Q00sp0H0nY-5" style="edgeStyle=orthogonalEdgeStyle;rounded=0;orthogonalLoop=1;jettySize=auto;html=1;entryX=0.018;entryY=0.6;entryDx=0;entryDy=0;entryPerimeter=0;" parent="1" source="v3KTgPduU6Q00sp0H0nY-3" target="flSQA8rRtIVv5wNm7FFq-185" edge="1">
          <mxGeometry relative="1" as="geometry" />
        </mxCell>
        <mxCell id="v3KTgPduU6Q00sp0H0nY-18" style="edgeStyle=orthogonalEdgeStyle;rounded=0;orthogonalLoop=1;jettySize=auto;html=1;entryX=0;entryY=0.5;entryDx=0;entryDy=0;" parent="1" source="v3KTgPduU6Q00sp0H0nY-14" target="v3KTgPduU6Q00sp0H0nY-17" edge="1">
          <mxGeometry relative="1" as="geometry" />
        </mxCell>
        <mxCell id="v3KTgPduU6Q00sp0H0nY-22" value="Sim" style="edgeLabel;html=1;align=center;verticalAlign=middle;resizable=0;points=[];" parent="v3KTgPduU6Q00sp0H0nY-18" vertex="1" connectable="0">
          <mxGeometry x="0.24" y="2" relative="1" as="geometry">
            <mxPoint x="-1" y="-13" as="offset" />
          </mxGeometry>
        </mxCell>
        <mxCell id="v3KTgPduU6Q00sp0H0nY-14" value="&lt;font style=&quot;font-size: 9px;&quot;&gt;adicionar&lt;/font&gt;" style="rhombus;whiteSpace=wrap;html=1;" parent="1" vertex="1">
          <mxGeometry x="300" y="1580" width="70" height="50" as="geometry" />
        </mxCell>
        <mxCell id="v3KTgPduU6Q00sp0H0nY-17" value="&lt;font style=&quot;font-size: 9px;&quot;&gt;tela de &quot;cadastro&quot;&lt;/font&gt;" style="rounded=0;whiteSpace=wrap;html=1;" parent="1" vertex="1">
          <mxGeometry x="400" y="1590" width="120" height="30" as="geometry" />
        </mxCell>
        <mxCell id="v3KTgPduU6Q00sp0H0nY-23" style="edgeStyle=orthogonalEdgeStyle;rounded=0;orthogonalLoop=1;jettySize=auto;html=1;entryX=1;entryY=0.5;entryDx=0;entryDy=0;" parent="1" source="v3KTgPduU6Q00sp0H0nY-19" target="v3KTgPduU6Q00sp0H0nY-21" edge="1">
          <mxGeometry relative="1" as="geometry">
            <mxPoint x="550" y="1710" as="targetPoint" />
            <Array as="points">
              <mxPoint x="660" y="1700" />
            </Array>
          </mxGeometry>
        </mxCell>
        <mxCell id="v3KTgPduU6Q00sp0H0nY-19" value="&lt;div&gt;&lt;br&gt;&lt;/div&gt;&lt;div&gt;&lt;br&gt;&lt;/div&gt;informções da conta&lt;div&gt;nome:xxx&lt;/div&gt;&lt;div&gt;valor:xxx&lt;/div&gt;&lt;div&gt;validade:xxx&lt;/div&gt;" style="shape=manualInput;whiteSpace=wrap;html=1;" parent="1" vertex="1">
          <mxGeometry x="600" y="1565" width="120" height="95" as="geometry" />
        </mxCell>
        <mxCell id="v3KTgPduU6Q00sp0H0nY-20" style="edgeStyle=orthogonalEdgeStyle;rounded=0;orthogonalLoop=1;jettySize=auto;html=1;entryX=0.017;entryY=0.333;entryDx=0;entryDy=0;entryPerimeter=0;" parent="1" source="v3KTgPduU6Q00sp0H0nY-17" target="v3KTgPduU6Q00sp0H0nY-19" edge="1">
          <mxGeometry relative="1" as="geometry" />
        </mxCell>
        <mxCell id="v3KTgPduU6Q00sp0H0nY-24" style="edgeStyle=orthogonalEdgeStyle;rounded=0;orthogonalLoop=1;jettySize=auto;html=1;entryX=1;entryY=1;entryDx=0;entryDy=0;" parent="1" source="v3KTgPduU6Q00sp0H0nY-21" target="v3KTgPduU6Q00sp0H0nY-17" edge="1">
          <mxGeometry relative="1" as="geometry">
            <Array as="points">
              <mxPoint x="540" y="1680" />
              <mxPoint x="540" y="1680" />
            </Array>
          </mxGeometry>
        </mxCell>
        <mxCell id="v3KTgPduU6Q00sp0H0nY-25" value="Não" style="edgeLabel;html=1;align=center;verticalAlign=middle;resizable=0;points=[];" parent="v3KTgPduU6Q00sp0H0nY-24" vertex="1" connectable="0">
          <mxGeometry x="0.1304" y="-4" relative="1" as="geometry">
            <mxPoint x="-24" as="offset" />
          </mxGeometry>
        </mxCell>
        <mxCell id="v3KTgPduU6Q00sp0H0nY-27" style="edgeStyle=orthogonalEdgeStyle;rounded=0;orthogonalLoop=1;jettySize=auto;html=1;entryX=0.5;entryY=0;entryDx=0;entryDy=0;" parent="1" source="v3KTgPduU6Q00sp0H0nY-21" target="v3KTgPduU6Q00sp0H0nY-26" edge="1">
          <mxGeometry relative="1" as="geometry">
            <Array as="points">
              <mxPoint x="540" y="1750" />
              <mxPoint x="405" y="1750" />
            </Array>
          </mxGeometry>
        </mxCell>
        <mxCell id="v3KTgPduU6Q00sp0H0nY-28" value="Sim" style="edgeLabel;html=1;align=center;verticalAlign=middle;resizable=0;points=[];" parent="v3KTgPduU6Q00sp0H0nY-27" vertex="1" connectable="0">
          <mxGeometry x="-0.4222" y="1" relative="1" as="geometry">
            <mxPoint x="-6" y="9" as="offset" />
          </mxGeometry>
        </mxCell>
        <mxCell id="v3KTgPduU6Q00sp0H0nY-21" value="&lt;font style=&quot;font-size: 10px;&quot;&gt;confirma?&lt;/font&gt;" style="rhombus;whiteSpace=wrap;html=1;" parent="1" vertex="1">
          <mxGeometry x="480" y="1654" width="80" height="80" as="geometry" />
        </mxCell>
        <mxCell id="v3KTgPduU6Q00sp0H0nY-29" style="edgeStyle=orthogonalEdgeStyle;rounded=0;orthogonalLoop=1;jettySize=auto;html=1;entryX=1;entryY=1;entryDx=0;entryDy=0;" parent="1" source="v3KTgPduU6Q00sp0H0nY-26" target="v3KTgPduU6Q00sp0H0nY-14" edge="1">
          <mxGeometry relative="1" as="geometry">
            <Array as="points">
              <mxPoint x="405" y="1660" />
              <mxPoint x="372" y="1660" />
            </Array>
          </mxGeometry>
        </mxCell>
        <mxCell id="jsm55oVyJJtcmc3wDpK--11" style="edgeStyle=orthogonalEdgeStyle;rounded=0;orthogonalLoop=1;jettySize=auto;html=1;exitX=0.5;exitY=0;exitDx=0;exitDy=0;" parent="1" source="v3KTgPduU6Q00sp0H0nY-26" edge="1">
          <mxGeometry relative="1" as="geometry">
            <mxPoint x="405.2121212121215" y="1700" as="targetPoint" />
          </mxGeometry>
        </mxCell>
        <mxCell id="v3KTgPduU6Q00sp0H0nY-26" value="conta adicionada" style="rounded=0;whiteSpace=wrap;html=1;" parent="1" vertex="1">
          <mxGeometry x="350" y="1674" width="110" height="40" as="geometry" />
        </mxCell>
      </root>
    </mxGraphModel>
  </diagram>
</mxfile>
